[img]http://img145.imageshack.us/img145/2203/tronlegacyposter31.jpg[/img]

[b][size=200][color=black]PLOT[/color][/size][/b]

[code]The son of a virtual world designer goes looking for his father and ends up inside the digital world that his father designed. He meets his father's creation turned bad and a unique ally who was born inside the digital domain of The Grid. [/code]

[b][size=200][color=black]IMDB[/color][/size][/b]

[code]http://www.imdb.com/title/tt1104001/[/code]

[b][size=200][color=black]MOVIE INFO[/color][/size][/b]

[code]TRON Legacy [2010] DvdRip x264 AAC-V3nom

Format                                   : MPEG-4
Format profile                           : Base Media / Version 2
Codec ID                                 : mp42
File size                                : 350 MiB
Duration                                 : 2h 5mn
Overall bit rate mode                    : Variable
Overall bit rate                         : 391 Kbps
Encoded date                             : UTC 2012-11-11 14:25:44
Tagged date                              : UTC 2012-11-11 14:55:52

Video
ID                                       : 1
Format                                   : AVC
Format/Info                              : Advanced Video Codec
Format profile                           : Main@L2.1
Format settings, CABAC                   : Yes
Format settings, ReFrames                : 4 frames
Codec ID                                 : avc1
Codec ID/Info                            : Advanced Video Coding
Duration                                 : 2h 5mn
Bit rate mode                            : Variable
Bit rate                                 : 275 Kbps
Width                                    : 600 pixels
Height                                   : 252 pixels
Display aspect ratio                     : 2.40:1
Frame rate mode                          : Variable
Frame rate                               : 23.976 fps
Minimum frame rate                       : 11.987 fps
Maximum frame rate                       : 23.981 fps
Color space                              : YUV
Chroma subsampling                       : 4:2:0
Bit depth                                : 8 bits
Scan type                                : Progressive
Bits/(Pixel*Frame)                       : 0.076
Stream size                              : 246 MiB (70%)
Writing library                          : x264 core

Audio
ID                                       : 2
Format                                   : AAC
Format/Info                              : Advanced Audio Codec
Format profile                           : LC
Codec ID                                 : 40
Duration                                 : 2h 5mn
Bit rate mode                            : Variable
Bit rate                                 : 112 Kbps
Maximum bit rate                         : 207 Kbps
Channel(s)                               : 2 channels
Channel positions                        : Front: L R
Sampling rate                            : 48.0 KHz
Compression mode                         : Lossy
Delay relative to video                  : 83ms
Stream size                              : 100 MiB (29%)
Encoded date                             : UTC 2012-11-11 14:25:44
Tagged date                              : UTC 2012-11-11 14:55:47[/code]

[b][size=200][color=black]SOURCE[/color][/size][/b]

[code]TRON Legacy[2010]DvDrip[Eng]-FXG(Thanks)[/code]

[b][size=200][color=black]SCREENSHOTS[/color][/size][/b]

[img]http://img254.imageshack.us/img254/8746/tronlegacy2010dvdripx26.jpg[/img]

[img]http://kastatic.com/i2/users/133df62bbf28e62494bb17fe11078f1a.gif[/img][img]http://kastatic.com/i2/users/133df62bbf28e62494bb17fe11078f1a.gif[/img]